<svg xmlns="http://www.w3.org/2000/svg" viewBox="0 0 24 24" role="img" aria-label="Apple">
  <path fill="#111111" d="M16.365 12.17c.026 2.76 2.412 3.68 2.438 3.69-.02.064-.382 1.31-1.258 2.595-.758 1.11-1.545 2.216-2.785 2.239-1.218.022-1.61-.722-3.003-.722-1.394 0-1.829.699-2.98.744-1.196.045-2.106-1.198-2.87-2.304-1.562-2.26-2.755-6.383-1.153-9.164.796-1.38 2.218-2.253 3.762-2.275 1.173-.022 2.28.79 3.003.79.722 0 2.078-.977 3.502-.833.596.025 2.27.24 3.345 1.813-.086.053-1.996 1.163-1.973 3.427z"/>
  <path fill="#111111" d="M14.299 6.656c.635-.77 1.064-1.84.947-2.907-.916.037-2.023.61-2.68 1.38-.588.68-1.102 1.768-.963 2.81 1.022.08 2.06-.518 2.696-1.283z"/>
</svg>
